<mxfile host="app.diagrams.net" modified="2022-10-27T17:09:39.989Z" agent="5.0 (Windows NT 10.0; Win64; x64) AppleWebKit/537.36 (KHTML, like Gecko) Chrome/106.0.0.0 Safari/537.36 Edg/106.0.1370.52" etag="Hs6Gw0KWnrhUJX2xk4A5" version="20.5.1" type="github">
  <diagram id="5Tu1m3tWtnSlBe5qT51w" name="Page-1">
    <mxGraphModel dx="942" dy="606" grid="1" gridSize="10" guides="1" tooltips="1" connect="1" arrows="1" fold="1" page="1" pageScale="1" pageWidth="850" pageHeight="1100" math="0" shadow="0">
      <root>
        <mxCell id="0" />
        <mxCell id="1" parent="0" />
        <mxCell id="VZQMvPXxBxcI1vtgzkzK-17" value="Product" style="swimlane;fontStyle=0;childLayout=stackLayout;horizontal=1;startSize=30;horizontalStack=0;resizeParent=1;resizeParentMax=0;resizeLast=0;collapsible=1;marginBottom=0;" vertex="1" parent="1">
          <mxGeometry x="60" y="120" width="190" height="230" as="geometry" />
        </mxCell>
        <mxCell id="VZQMvPXxBxcI1vtgzkzK-18" value="+id: int&#xa;+name: String&#xa;+category: String&#xa;+ salesPrice: float&#xa;+ cost: float&#xa;+ quantity: int&#xa;+ active: boolean" style="text;strokeColor=none;fillColor=none;align=left;verticalAlign=middle;spacingLeft=4;spacingRight=4;overflow=hidden;points=[[0,0.5],[1,0.5]];portConstraint=eastwest;rotatable=0;" vertex="1" parent="VZQMvPXxBxcI1vtgzkzK-17">
          <mxGeometry y="30" width="190" height="110" as="geometry" />
        </mxCell>
        <mxCell id="VZQMvPXxBxcI1vtgzkzK-19" value="+ getprofitOrLoss(): float&#xa;+ active(): void&#xa;+ deactivate(): void&#xa;+ isBelowThreshold(): boolean" style="text;strokeColor=none;fillColor=none;align=left;verticalAlign=middle;spacingLeft=4;spacingRight=4;overflow=hidden;points=[[0,0.5],[1,0.5]];portConstraint=eastwest;rotatable=0;" vertex="1" parent="VZQMvPXxBxcI1vtgzkzK-17">
          <mxGeometry y="140" width="190" height="90" as="geometry" />
        </mxCell>
        <mxCell id="VZQMvPXxBxcI1vtgzkzK-21" value="Order" style="swimlane;fontStyle=0;childLayout=stackLayout;horizontal=1;startSize=30;horizontalStack=0;resizeParent=1;resizeParentMax=0;resizeLast=0;collapsible=1;marginBottom=0;" vertex="1" parent="1">
          <mxGeometry x="390" y="70" width="180" height="160" as="geometry" />
        </mxCell>
        <mxCell id="VZQMvPXxBxcI1vtgzkzK-22" value="+id: int&#xa;+ vendor: Vendor&#xa;+ date: String&#xa;+ orderedProduct: Product&#xa;+ orderedQuantity: int&#xa;+amountPaid: float" style="text;strokeColor=none;fillColor=none;align=left;verticalAlign=middle;spacingLeft=4;spacingRight=4;overflow=hidden;points=[[0,0.5],[1,0.5]];portConstraint=eastwest;rotatable=0;" vertex="1" parent="VZQMvPXxBxcI1vtgzkzK-21">
          <mxGeometry y="30" width="180" height="100" as="geometry" />
        </mxCell>
        <mxCell id="VZQMvPXxBxcI1vtgzkzK-23" value="- updatevendorCredit(): void" style="text;strokeColor=none;fillColor=none;align=left;verticalAlign=middle;spacingLeft=4;spacingRight=4;overflow=hidden;points=[[0,0.5],[1,0.5]];portConstraint=eastwest;rotatable=0;" vertex="1" parent="VZQMvPXxBxcI1vtgzkzK-21">
          <mxGeometry y="130" width="180" height="30" as="geometry" />
        </mxCell>
        <mxCell id="VZQMvPXxBxcI1vtgzkzK-30" style="edgeStyle=orthogonalEdgeStyle;rounded=0;orthogonalLoop=1;jettySize=auto;html=1;entryX=1.024;entryY=0.436;entryDx=0;entryDy=0;entryPerimeter=0;" edge="1" parent="1" source="VZQMvPXxBxcI1vtgzkzK-22" target="VZQMvPXxBxcI1vtgzkzK-18">
          <mxGeometry relative="1" as="geometry" />
        </mxCell>
        <mxCell id="VZQMvPXxBxcI1vtgzkzK-31" value="Vendor" style="swimlane;fontStyle=0;childLayout=stackLayout;horizontal=1;startSize=30;horizontalStack=0;resizeParent=1;resizeParentMax=0;resizeLast=0;collapsible=1;marginBottom=0;" vertex="1" parent="1">
          <mxGeometry x="660" y="120" width="290" height="340" as="geometry" />
        </mxCell>
        <mxCell id="VZQMvPXxBxcI1vtgzkzK-32" value="+ id: int&#xa;+ contactNmae: String&#xa;+ contactPhone: String&#xa;+ contactEmail: String&#xa;+ adressStreet: String&#xa;+ addressCity: String&#xa;+ adressState: String&#xa;+ vendorname: String&#xa;+ credit: float&#xa;+ products: Product[0..100]&#xa;+ orders: Order [0..100]" style="text;strokeColor=none;fillColor=none;align=left;verticalAlign=middle;spacingLeft=4;spacingRight=4;overflow=hidden;points=[[0,0.5],[1,0.5]];portConstraint=eastwest;rotatable=0;" vertex="1" parent="VZQMvPXxBxcI1vtgzkzK-31">
          <mxGeometry y="30" width="290" height="180" as="geometry" />
        </mxCell>
        <mxCell id="VZQMvPXxBxcI1vtgzkzK-33" value="+ getContactDetails(): String&#xa;+ getAdressDetails(): String&#xa;+ updateContactDetails(contactDetail: String): void&#xa;+ updateAdressDetails(adressDetail: String): void&#xa;+ checkDue(): float&#xa;+ fetchProductById(id: int): Procuct&#xa;+ fetchProductByName(name: String): Product" style="text;strokeColor=none;fillColor=none;align=left;verticalAlign=middle;spacingLeft=4;spacingRight=4;overflow=hidden;points=[[0,0.5],[1,0.5]];portConstraint=eastwest;rotatable=0;" vertex="1" parent="VZQMvPXxBxcI1vtgzkzK-31">
          <mxGeometry y="210" width="290" height="130" as="geometry" />
        </mxCell>
        <mxCell id="VZQMvPXxBxcI1vtgzkzK-41" style="edgeStyle=orthogonalEdgeStyle;rounded=0;orthogonalLoop=1;jettySize=auto;html=1;" edge="1" parent="1" source="VZQMvPXxBxcI1vtgzkzK-32" target="VZQMvPXxBxcI1vtgzkzK-22">
          <mxGeometry relative="1" as="geometry" />
        </mxCell>
        <mxCell id="VZQMvPXxBxcI1vtgzkzK-42" style="edgeStyle=orthogonalEdgeStyle;rounded=0;orthogonalLoop=1;jettySize=auto;html=1;" edge="1" parent="1" source="VZQMvPXxBxcI1vtgzkzK-32" target="VZQMvPXxBxcI1vtgzkzK-19">
          <mxGeometry relative="1" as="geometry" />
        </mxCell>
      </root>
    </mxGraphModel>
  </diagram>
</mxfile>
